<svg width="24" height="24" viewBox="0 0 24 24" fill="none" xmlns="http://www.w3.org/2000/svg">
<g id="chevron-double-right/solid">
<path id="Vector" fill-rule="evenodd" clip-rule="evenodd" d="M4.71983 3.97001C4.86045 3.82956 5.05108 3.75067 5.24983 3.75067C5.44858 3.75067 5.6392 3.82956 5.77983 3.97001L13.2798 11.47C13.4203 11.6106 13.4992 11.8013 13.4992 12C13.4992 12.1988 13.4203 12.3894 13.2798 12.53L5.77983 20.03C5.63765 20.1625 5.44961 20.2346 5.25531 20.2312C5.061 20.2278 4.87562 20.149 4.73821 20.0116C4.60079 19.8742 4.52208 19.6888 4.51865 19.4945C4.51523 19.3002 4.58735 19.1122 4.71983 18.97L11.6898 12L4.71983 5.03001C4.57938 4.88939 4.50049 4.69876 4.50049 4.50001C4.50049 4.30126 4.57938 4.11064 4.71983 3.97001ZM10.7198 3.97001C10.8605 3.82956 11.0511 3.75067 11.2498 3.75067C11.4486 3.75067 11.6392 3.82956 11.7798 3.97001L19.2798 11.47C19.4203 11.6106 19.4992 11.8013 19.4992 12C19.4992 12.1988 19.4203 12.3894 19.2798 12.53L11.7798 20.03C11.7112 20.1037 11.6284 20.1628 11.5364 20.2038C11.4444 20.2448 11.3451 20.2668 11.2444 20.2686C11.1436 20.2704 11.0436 20.2519 10.9502 20.2141C10.8568 20.1764 10.772 20.1203 10.7008 20.049C10.6296 19.9778 10.5734 19.893 10.5357 19.7996C10.498 19.7062 10.4795 19.6062 10.4812 19.5055C10.483 19.4048 10.5051 19.3055 10.546 19.2135C10.587 19.1215 10.6461 19.0387 10.7198 18.97L17.6898 12L10.7198 5.03001C10.5794 4.88939 10.5005 4.69876 10.5005 4.50001C10.5005 4.30126 10.5794 4.11064 10.7198 3.97001Z" fill="black"/>
</g>
</svg>
