<svg width="16" height="16" viewBox="0 0 16 16" fill="none" xmlns="http://www.w3.org/2000/svg">
<g id="Interface essential/Magnifier ">
<path id="Icon" fill-rule="evenodd" clip-rule="evenodd" d="M2.70784 5.11296C3.65864 2.82987 5.88641 1.3401 8.35956 1.33349C11.025 1.31945 13.3951 3.02678 14.226 5.55947C15.0568 8.09216 14.1587 10.8716 12.0029 12.4393C9.84715 14.0069 6.92617 14.0046 4.77289 12.4335L2.85289 14.3535C2.65768 14.5485 2.34144 14.5485 2.14623 14.3535C1.95126 14.1583 1.95126 13.842 2.14623 13.6468L4.00623 11.7868C2.26883 10.0267 1.75704 7.39605 2.70784 5.11296ZM3.59927 9.44612C4.39759 11.3699 6.27672 12.6229 8.35956 12.6202V12.5935C11.1864 12.5899 13.4813 10.307 13.4996 7.48016C13.5023 5.39731 12.2493 3.51819 10.3255 2.71987C8.40174 1.92155 6.18645 2.36146 4.71365 3.83425C3.24086 5.30705 2.80096 7.52234 3.59927 9.44612Z" fill="black"/>
</g>
</svg>
