<svg width="14" height="14" viewBox="0 0 14 14" fill="none" xmlns="http://www.w3.org/2000/svg">
<path d="M11.9583 6.41667H8.75C8.42783 6.41667 8.16667 6.1555 8.16667 5.83333V2.625C8.16667 2.14175 7.77492 1.75 7.29167 1.75C6.80842 1.75 6.41667 2.14175 6.41667 2.625V5.83333C6.41667 6.1555 6.1555 6.41667 5.83333 6.41667H2.625C2.14175 6.41667 1.75 6.80842 1.75 7.29167C1.75 7.77492 2.14175 8.16667 2.625 8.16667H5.83333C6.1555 8.16667 6.41667 8.42783 6.41667 8.75V11.9583C6.41667 12.4416 6.80842 12.8333 7.29167 12.8333C7.77492 12.8333 8.16667 12.4416 8.16667 11.9583V8.75C8.16667 8.42783 8.42783 8.16667 8.75 8.16667H11.9583C12.4416 8.16667 12.8333 7.77492 12.8333 7.29167C12.8333 6.80842 12.4416 6.41667 11.9583 6.41667Z" fill="#FDFDFD"/>
</svg>
