<svg width="14" height="14" viewBox="0 0 14 14" fill="none" xmlns="http://www.w3.org/2000/svg">
<path fill-rule="evenodd" clip-rule="evenodd" d="M11.725 3.77417L9.8 1.84917C9.36204 1.4117 8.76819 1.16619 8.14917 1.16667H5.425C4.80598 1.16619 4.21213 1.4117 3.77417 1.84917L1.84917 3.77417C1.4117 4.21213 1.16618 4.80598 1.16667 5.42501V8.14917C1.16773 8.76618 1.41312 9.35764 1.84917 9.79417L3.77417 11.725C4.21213 12.1625 4.80598 12.408 5.425 12.4075H8.14917C8.76819 12.408 9.36204 12.1625 9.8 11.725L11.725 9.79417C12.161 9.35764 12.4064 8.76618 12.4075 8.14917V5.42501C12.408 4.80598 12.1625 4.21213 11.725 3.77417ZM6.34667 4.82417C6.34667 4.66787 6.43006 4.52344 6.56542 4.44529C6.70078 4.36713 6.86756 4.36713 7.00292 4.44529C7.13828 4.52344 7.22167 4.66787 7.22167 4.82417V6.63251C7.22167 6.87413 7.02579 7.07001 6.78417 7.07001C6.54254 7.07001 6.34667 6.87413 6.34667 6.63251V4.82417ZM6.79 8.76167C7.03163 8.76167 7.2275 8.5658 7.2275 8.32417C7.2275 8.08255 7.03163 7.88667 6.79 7.88667C6.54838 7.88667 6.3525 8.08255 6.3525 8.32417C6.3525 8.5658 6.54838 8.76167 6.79 8.76167Z" fill="#E32525"/>
</svg>
